<svg xmlns="http://www.w3.org/2000/svg" width="256" height="256" viewBox="0 0 256 256">
  <defs>
    <style>
      .cls-1 {
        fill: #8a2be2;
        fill-rule: evenodd;
      }
    </style>
  </defs>
  <path class="cls-1" d="M176.691,247.4a134.651,134.651,0,0,0,2.03-23.41c0-25.915-7.157-49.051-18.364-64.273,10.571-7.051,19.45-18.956,19.45-38.939a46.431,46.431,0,0,0-2.273-14.376l11.132-41.75L147.743,75.675a53.526,53.526,0,0,0-41.2,1.318L67.955,66.6l11.206,42.028,0.129-.13a46.443,46.443,0,0,0-1.649,12.281,47.727,47.727,0,0,0,19.836,38.436c-9.387,12.5-16,30.493-18.056,51.053-3.962-3.049-6.7-1.87-10.215-17.676A61.061,61.061,0,0,0,65,180c-0.306-.793-0.821-0.89-1-2a10.38,10.38,0,0,0-2-4,22.524,22.524,0,0,0-2-2,46.226,46.226,0,0,0-3.91-4.041c-2.939-2.657-8.583-4.93-11.873-4.966-1.308-.014,3.4,8.163,6.926,16.884,3.068,7.582,3.707,11.168,4.329,19.12,0.856,10.937,6.591,17.014,6.555,17.626-0.031.523,6.643,6.741,6.926,6.952,3.984,2.977,3.751,3.95,9.855,4.959a133.181,133.181,0,0,0,2.06,19.506A128.009,128.009,0,1,1,176.691,247.4ZM158.977,27.631c-7.173-16.874-27.56-12.937-27.694,6.648-0.075,10.757,9.708,14.777,16.221,19.077,6.316,4.17,10.811,9.875,11.515,12.3,0.6-2.379,5.61-8.246,11.456-12.42,6.392-4.565,16.3-8.321,16.221-19.078C186.561,14.528,165.819,11.429,158.977,27.631ZM216.09,65.09c-0.8-12.448-15.36-15.121-20.084-2.812-2.594,6.76,2.993,11.767,6.329,16.124,3.235,4.225,4.89,8.957,4.786,10.665,0.966-1.347,5.7-3.778,10.6-4.931,5.352-1.261,12.861-1.124,15.356-7.922C237.628,63.807,224.5,56.61,216.09,65.09Z"/>
</svg>
